<?xml version="1.0" standalone="no"?>
<!DOCTYPE svg PUBLIC "-//W3C//DTD SVG 20010904//EN"
 "http://www.w3.org/TR/2001/REC-SVG-20010904/DTD/svg10.dtd">
<svg version="1.0" xmlns="http://www.w3.org/2000/svg"
 width="256.000000pt" height="256.000000pt" viewBox="0 0 256.000000 256.000000"
 preserveAspectRatio="xMidYMid meet">

<g transform="translate(0.000000,256.000000) scale(0.100000,-0.100000)"
fill="#ffffff" stroke="none">
<path d="M1230 2548 c-19 -5 -145 -63 -280 -128 -135 -65 -378 -173 -540 -239
-162 -66 -321 -131 -352 -145 l-58 -26 0 -90 0 -90 88 0 89 0 17 -39 c17 -36
22 -39 69 -46 29 -4 504 -7 1057 -6 1108 3 1022 -2 1056 63 13 26 18 27 97 30
l82 3 3 84 c4 103 -4 113 -102 142 -90 26 -930 385 -1054 450 -96 50 -112 54
-172 37z"/>
<path d="M340 1095 l0 -545 -51 0 c-40 0 -57 -6 -85 -27 -33 -27 -34 -31 -34
-94 l0 -66 1073 -5 c589 -3 1090 -3 1112 1 39 6 40 8 43 48 6 88 -48 143 -139
143 l-39 0 0 545 0 545 -170 0 -170 0 0 -545 0 -545 -85 0 -85 0 0 545 0 545
-170 0 -170 0 0 -545 0 -545 -85 0 -85 0 0 545 0 545 -170 0 -170 0 0 -545 0
-545 -85 0 -85 0 0 545 0 545 -175 0 -175 0 0 -545z"/>
<path d="M1130 271 c-869 -5 -1070 -8 -1091 -20 -32 -16 -39 -47 -39 -168 l0
-83 1280 0 1280 0 0 88 c0 63 -6 98 -19 128 -17 37 -23 42 -62 47 -86 12 -297
13 -1349 8z"/>
</g>
</svg>
